<?xml version="1.0" encoding="UTF-8" standalone="no"?>
<svg width="34px" height="36px" viewBox="0 0 34 36" version="1.1" xmlns="http://www.w3.org/2000/svg" xmlns:xlink="http://www.w3.org/1999/xlink" xmlns:sketch="http://www.bohemiancoding.com/sketch/ns">
    <!-- Generator: Sketch 3.4.2 (15855) - http://www.bohemiancoding.com/sketch -->
    <title>ic_skull_stat</title>
    <desc>Created with Sketch.</desc>
    <defs></defs>
    <g id="Page-1" stroke="none" stroke-width="1" fill="none" fill-rule="evenodd" sketch:type="MSPage">
        <g id="Desktop-HD-Copy-3" sketch:type="MSArtboardGroup" transform="translate(-935.000000, -316.000000)">
            <g id="Deaths-+-ic_skull-+-Title-Label-Copy-13" sketch:type="MSLayerGroup" transform="translate(932.000000, 230.000000)">
                <g id="Deaths-+-ic_skull" transform="translate(0.000000, 85.000000)" sketch:type="MSShapeGroup">
                    <g id="ic_skull_stat">
                        <rect id="Rectangle-205" opacity="0.788129664" x="0" y="0" width="40" height="40"></rect>
                        <path d="M20.6905802,22.9505687 C20.4914125,22.766611 20.2297573,22.6908848 19.9772862,22.7162459 C19.7248151,22.6901704 19.46334,22.765718 19.2647126,22.9505687 C18.6083237,23.5645944 16.5145422,25.6908235 17.1583255,27.3046502 C17.4997558,28.1569279 18.4176198,28.5884247 19.885806,28.5884247 C19.9171397,28.5884247 19.9470329,28.5825309 19.9776464,28.5789589 C20.0084399,28.5825309 20.0383331,28.5884247 20.069847,28.5884247 C21.5378531,28.5884247 22.4558971,28.1569279 22.7973274,27.3046502 C23.4411107,25.6908235 21.346789,23.5642372 20.6905802,22.9505687 L20.6905802,22.9505687 Z M14.1546035,16.7329782 C11.9950931,16.7329782 10.2386,18.4750394 10.2386,20.6171639 C10.2386,22.7607173 11.9950931,24.5049217 14.1546035,24.5049217 C16.3162749,24.5049217 18.0745688,22.7607173 18.0745688,20.6171639 C18.0745688,18.4750394 16.3162749,16.7329782 14.1546035,16.7329782 L14.1546035,16.7329782 Z M34.3847072,7.36435355 C30.4141397,2.07762452 22.662448,1.66666667 20.3731004,1.66666667 L20.0444558,1.67166746 L19.6167675,1.66666667 C17.3355235,1.66666667 9.58383182,2.07762452 5.61308421,7.36471075 C3.0651428,10.7616766 2.65060035,15.3913374 4.38134209,21.1268874 C4.46669966,21.4131827 5.2206915,23.9753737 5.47730445,25.8558496 C5.72131184,27.6480974 7.01392074,28.7180881 8.93500626,28.7180881 L8.94977276,28.7179095 L10.6983423,28.7611306 C10.7107678,28.7932785 10.7273351,28.8482872 10.7395805,28.9365155 L10.7768569,29.2692467 C10.9558557,30.8568192 11.4303645,35.0664136 16.6915601,36.3121463 C16.8620951,36.3780496 17.0301091,36.3941236 17.1864179,36.3971598 C18.0223458,36.5784384 18.942911,36.6666667 19.9985356,36.6666667 C21.0595625,36.6666667 21.9759859,36.5914762 22.7966071,36.4375233 C22.8250596,36.4412739 22.8587344,36.4444887 22.8958307,36.4444887 C23.1434397,36.4444887 23.3834854,36.3830504 23.5957988,36.2666034 C28.5775114,34.9383576 29.0439166,30.832351 29.2189537,29.2924646 L29.258211,29.0113487 C29.2655942,28.95634 29.2729775,28.9116901 29.2800006,28.875613 L29.3370857,28.8965091 L31.2129713,28.8965091 C32.5524008,28.8965091 34.2222758,28.1222795 34.5219276,25.9390771 C34.7765597,24.0662809 35.5303715,21.4440804 35.6148287,21.15207 C37.3504325,15.4050896 36.9366104,10.7661416 34.3847072,7.36435355 L34.3847072,7.36435355 Z M32.8419683,20.3169379 C32.7508481,20.6230577 31.9437329,23.3665274 31.6539854,25.4802545 C31.6255329,25.6924309 31.603203,25.8604932 31.0469382,25.8604932 L29.2814412,25.899428 C28.0253884,25.899428 26.6440004,26.7247371 26.3899086,28.5691359 L26.3850464,28.6059275 L26.3859468,28.9818798 C26.2161321,30.4503263 25.8422875,31.9107359 24.4281251,32.8478484 L24.4281251,31.097393 C24.4281251,30.3199486 23.7272567,29.6634162 22.8976315,29.6634162 C22.0680064,29.6634162 21.3667778,30.3201272 21.3667778,31.097393 L21.3667778,33.7535273 C20.9399899,33.8001419 20.4582779,33.8242528 19.9488337,33.8242528 C19.4948539,33.8242528 19.0711274,33.8044283 18.6655889,33.7644219 L18.6655889,31.0966786 C18.6655889,30.3058392 18.0192845,29.6627018 17.2249549,29.6627018 C16.4306252,29.6627018 15.7843208,30.3060178 15.7843208,31.0966786 L15.7843208,32.9383984 C13.9747043,31.8551914 13.7665327,30.0063275 13.648941,28.9631268 L13.6042813,28.5460966 C13.3334421,26.5629258 11.8162744,25.8596002 10.5992988,25.8596002 L8.78464008,25.8596002 C8.39584896,25.8596002 8.37766096,25.7295797 8.34182519,25.4727533 C8.06180194,23.4165353 7.30294795,20.798264 7.1515013,20.2865759 C5.6973613,15.4693855 5.96063717,11.6946813 7.93376559,9.06748006 C11.1760926,4.74840408 18.2346592,4.52961948 19.6068632,4.52961948 L20.0422948,4.53729927 L20.3810239,4.53337007 C21.7624119,4.53337007 28.8179172,4.75251188 32.0636657,9.07748164 C34.0384148,11.7096837 34.3006102,15.4897458 32.8419683,20.3169379 L32.8419683,20.3169379 Z M25.843368,16.7329782 C23.6816966,16.7329782 21.9234027,18.4750394 21.9234027,20.6171639 C21.9234027,22.7607173 23.6816966,24.5049217 25.843368,24.5049217 C28.0050394,24.5049217 29.7633333,22.7607173 29.7633333,20.6171639 C29.762793,18.4750394 28.0048593,16.7329782 25.843368,16.7329782 L25.843368,16.7329782 Z" id="Shape" fill="#333333"></path>
                    </g>
                </g>
            </g>
        </g>
    </g>
</svg>