<?xml version="1.0" encoding="UTF-8" standalone="no"?>
<svg width="30px" height="25px" viewBox="0 0 30 25" version="1.1" xmlns="http://www.w3.org/2000/svg" xmlns:xlink="http://www.w3.org/1999/xlink" xmlns:sketch="http://www.bohemiancoding.com/sketch/ns">
    <!-- Generator: Sketch 3.4.2 (15855) - http://www.bohemiancoding.com/sketch -->
    <title>ic_timealive</title>
    <desc>Created with Sketch.</desc>
    <defs></defs>
    <g id="Page-1" stroke="none" stroke-width="1" fill="none" fill-rule="evenodd" sketch:type="MSPage">
        <g id="Desktop-HD-Copy-3" sketch:type="MSArtboardGroup" transform="translate(-617.000000, -492.000000)" fill="#333333">
            <g id="WINS-+-noun_35859_cc-+-Title-Label-Copy-7" sketch:type="MSLayerGroup" transform="translate(617.000000, 405.000000)">
                <g id="WINS-+-noun_35859_cc" transform="translate(0.000000, 87.000000)" sketch:type="MSShapeGroup">
                    <g id="ic_timealive">
                        <g id="Group">
                            <g>
                                <circle id="Oval" cx="24.8125" cy="4.875" r="3"></circle>
                                <path d="M29.5,11.1875 C29.125,10.5625 28.3125,10.375 27.6875,10.75 C26,11.8125 23.6875,12.875 22.1875,12 C20.625,11.1875 20.25,8.5625 20.25,7.5625 L20.25,7.4375 C19.8125,3.75 18.5,1.4375 16.375,0.5 C13.25,-0.875 9.8125,1.625 9.625,1.75 C9.0625,2.1875 8.9375,3 9.3125,3.5625 C9.75,4.125 10.5625,4.25 11.125,3.875 C11.75,3.4375 13.8125,2.3125 15.3125,2.9375 C16.1875,3.3125 16.75,4.3125 17.125,5.4375 L11.875,6.1875 C11.5,6.25 11.1875,6.25 10.875,6.3125 L10.875,6.3125 L10.875,6.3125 C9.5625,6.5625 8.4375,6.9375 7.6875,7.625 C7.25,7.9375 7,8.4375 7.125,9 C8.8125,17.0625 1.25,22.25 0.9375,22.4375 C0.3125,22.8125 0.1875,23.625 0.5625,24.25 C0.8125,24.625 1.25,24.8125 1.625,24.8125 C1.875,24.8125 2.125,24.75 2.3125,24.625 C2.5625,24.5 6,22.1875 8.125,18.1875 C10.5,18.875 12.3125,19.1875 13.625,19.1875 C15.1875,19.1875 16.0625,18.75 16.5625,17.8125 C17.4375,16.125 15.625,13.5 13.0625,11 L18.125,10.5625 C18.5625,11.9375 19.375,13.4375 20.875,14.3125 C21.625,14.75 22.4375,14.9375 23.375,14.9375 C25,14.9375 26.875,14.3125 29,13 C29.6875,12.5625 29.875,11.8125 29.5,11.1875 L29.5,11.1875 Z M14.1875,16.5 C13.75,16.5625 12.4375,16.625 9.1875,15.75 C9.625,14.5 9.875,13.0625 9.875,11.5625 C12.1875,13.625 13.9375,15.625 14.1875,16.5 L14.1875,16.5 Z" id="Shape"></path>
                            </g>
                        </g>
                    </g>
                </g>
            </g>
        </g>
    </g>
</svg>