<?xml version="1.0" encoding="UTF-8" standalone="no"?>
<svg width="30px" height="27px" viewBox="0 0 30 27" version="1.1" xmlns="http://www.w3.org/2000/svg" xmlns:xlink="http://www.w3.org/1999/xlink" xmlns:sketch="http://www.bohemiancoding.com/sketch/ns">
    <!-- Generator: Sketch 3.4.2 (15855) - http://www.bohemiancoding.com/sketch -->
    <title>ic_wins</title>
    <desc>Created with Sketch.</desc>
    <defs></defs>
    <g id="Page-1" stroke="none" stroke-width="1" fill="none" fill-rule="evenodd" sketch:type="MSPage">
        <g id="Desktop-HD-Copy-3" sketch:type="MSArtboardGroup" transform="translate(-387.000000, -322.000000)" fill="#333333">
            <g id="WINS-+-noun_35859_cc-+-Title-Label-Copy-6" sketch:type="MSLayerGroup" transform="translate(387.000000, 230.000000)">
                <g id="WINS-+-noun_35859_cc" transform="translate(0.000000, 92.000000)" sketch:type="MSShapeGroup">
                    <g id="ic_wins">
                        <g id="Group" transform="translate(6.760563, 0.000000)">
                            <path d="M8.33197183,20.0614286 C8.28126761,20.0614286 8.23098592,20.055 8.1815493,20.043 C7.8528169,19.9615714 0.124647887,17.8482857 0.124647887,0.773142857 C0.124647887,0.417857143 0.408169014,0.130285714 0.758450704,0.130285714 L15.906338,0.130285714 C16.2561972,0.130285714 16.5401408,0.417857143 16.5401408,0.773142857 C16.5401408,17.8482857 8.81197183,19.9611429 8.48323944,20.043 C8.43295775,20.055 8.38225352,20.0614286 8.33197183,20.0614286 L8.33197183,20.0614286 Z M1.3956338,1.416 C1.56422535,15.5922857 7.30521127,18.3625714 8.32816901,18.7427143 C9.34183099,18.3518571 15.0976056,15.5065714 15.2683099,1.416 L1.3956338,1.416 L1.3956338,1.416 Z" id="Shape"></path>
                            <path d="M8.33197183,23.3031429 C7.04577465,23.3031429 5.99915493,22.2878571 5.99915493,21.0398571 C5.99915493,19.7914286 7.04577465,18.7757143 8.33197183,18.7757143 C9.61816901,18.7757143 10.6647887,19.7914286 10.6647887,21.0398571 C10.6643662,22.2878571 9.61816901,23.3031429 8.33197183,23.3031429 L8.33197183,23.3031429 Z M8.33197183,20.0614286 C7.74464789,20.0614286 7.26676056,20.5002857 7.26676056,21.0398571 C7.26676056,21.579 7.74464789,22.0174286 8.33197183,22.0174286 C8.91929577,22.0174286 9.3971831,21.579 9.3971831,21.0398571 C9.39676056,20.5002857 8.91887324,20.0614286 8.33197183,20.0614286 L8.33197183,20.0614286 Z" id="Shape"></path>
                            <path d="M13.7061972,26.7857143 L2.95732394,26.7857143 C2.65985915,26.7857143 2.40253521,26.5761429 2.33873239,26.2817143 C2.32732394,26.229 2.06661972,24.9737143 2.97929577,23.8212857 C3.92661972,22.6242857 5.72746479,22.0174286 8.33197183,22.0174286 C10.9364789,22.0174286 12.7377465,22.6242857 13.6846479,23.8212857 C14.5973239,24.9737143 14.3370423,26.229 14.3256338,26.2817143 C14.2609859,26.5761429 14.003662,26.7857143 13.7061972,26.7857143 L13.7061972,26.7857143 Z M3.58225352,25.5 L13.0812676,25.5 C13.0407042,25.2424286 12.9346479,24.9197143 12.6807042,24.6064286 C11.988169,23.754 10.4847887,23.3031429 8.33197183,23.3031429 C5.59014085,23.3031429 4.44507042,24.0227143 3.96760563,24.6261429 C3.72422535,24.9334286 3.6215493,25.2488571 3.58225352,25.5 L3.58225352,25.5 Z" id="Shape"></path>
                        </g>
                        <path d="M8.07929577,19.3371429 C7.60901408,19.3371429 7.11760563,19.2454286 6.62873239,19.0585714 C6.30126761,18.933 6.13605634,18.5618571 6.25985915,18.2297143 C6.38366197,17.8975714 6.75084507,17.7312857 7.07704225,17.8555714 C7.97661972,18.2001429 8.85802817,18.0844286 9.37901408,17.5534286 C9.94859155,16.9722857 10.0204225,15.9677143 9.57633803,14.7972857 C9.20239437,13.8111429 7.50676056,12.8751429 5.86690141,11.9691429 C2.97549296,10.3722857 -0.623239437,8.385 0.657464789,4.74342857 C1.25830986,3.03385714 2.21197183,1.93928571 3.49183099,1.49057143 C5.60492958,0.749571429 7.76577465,2.10728571 7.85661972,2.16557143 C8.1528169,2.355 8.2415493,2.75185714 8.05478873,3.05228571 C7.86887324,3.35271429 7.47802817,3.44271429 7.18183099,3.25414286 L7.18183099,3.25414286 C7.16450704,3.24342857 5.43295775,2.166 3.89957746,2.70814286 C3.00464789,3.02442857 2.31549296,3.85457143 1.85112676,5.17542857 C0.998450704,7.60028571 3.12760563,8.99271429 6.4728169,10.8402857 C8.39873239,11.904 10.2177465,12.9085714 10.7590141,14.3357143 C11.3907042,15.9998571 11.2153521,17.5032857 10.2777465,18.4598571 C9.71239437,19.0367143 8.93070423,19.3371429 8.07929577,19.3371429 L8.07929577,19.3371429 Z" id="Shape"></path>
                        <path d="M22.0846479,19.3418571 C21.2256338,19.3418571 20.4388732,19.0401429 19.8709859,18.4598571 C18.9426761,17.5127143 18.7685915,16.0242857 19.3939437,14.3772857 C19.9343662,12.9518571 21.7571831,11.9408571 23.6869014,10.8702857 C27.048169,9.006 29.1878873,7.60242857 28.3343662,5.17542857 C27.87,3.85457143 27.1808451,3.02442857 26.2859155,2.70814286 C24.7525352,2.166 23.0205634,3.24342857 23.003662,3.25414286 C22.7074648,3.44142857 22.3166197,3.35057143 22.1307042,3.05057143 C21.9452113,2.75014286 22.0339437,2.35457143 22.3292958,2.16557143 C22.4201408,2.10728571 24.5792958,0.749142857 26.6940845,1.49057143 C27.9735211,1.93928571 28.9271831,3.03385714 29.5284507,4.74342857 C30.8087324,8.38542857 27.1969014,10.3885714 24.2949296,11.9982857 C22.6504225,12.9098571 20.9501408,13.8535714 20.5766197,14.8384286 C20.1388732,15.9917143 20.2090141,16.9812857 20.7697183,17.5534286 C21.2961972,18.0912857 22.1919718,18.207 23.1084507,17.8551429 C23.4350704,17.7304286 23.8014085,17.8971429 23.9256338,18.2292857 C24.0494366,18.561 23.8842254,18.9325714 23.5567606,19.0581429 C23.0602817,19.2484286 22.5612676,19.3418571 22.0846479,19.3418571 L22.0846479,19.3418571 Z" id="Shape"></path>
                    </g>
                </g>
            </g>
        </g>
    </g>
</svg>