<?xml version="1.0" encoding="UTF-8" standalone="no"?>
<svg width="20px" height="24px" viewBox="0 0 20 24" version="1.1" xmlns="http://www.w3.org/2000/svg" xmlns:xlink="http://www.w3.org/1999/xlink" xmlns:sketch="http://www.bohemiancoding.com/sketch/ns">
    <!-- Generator: Sketch Beta 3.4.2 (15855) - http://www.bohemiancoding.com/sketch -->
    <title>Group</title>
    <desc>Created with Sketch Beta.</desc>
    <defs></defs>
    <g id="Page-1" stroke="none" stroke-width="1" fill="none" fill-rule="evenodd" sketch:type="MSPage">
        <g id="Desktop-HD-Copy" sketch:type="MSArtboardGroup" transform="translate(-1163.000000, -207.000000)">
            <g id="Group" sketch:type="MSLayerGroup" transform="translate(1161.000000, 207.000000)">
                <rect id="Rectangle-37" opacity="0.788129664" sketch:type="MSShapeGroup" x="0" y="0" width="24" height="24"></rect>
                <g transform="translate(2.000000, 0.000000)" id="Shape" fill="#333333" sketch:type="MSShapeGroup">
                    <path d="M18.0982353,13.9815904 C18.6732353,13.4668916 19.7438235,12.5080482 19.7438235,8.18631325 C19.7438235,0.950457831 12.8914706,0.16886747 9.94558824,0.16886747 C6.99970588,0.16886747 0.147058824,0.950168675 0.147058824,8.18631325 C0.147058824,12.5011084 1.19235294,13.4637108 1.75441176,13.9813012 C2.33941176,14.5202892 2.50294118,14.8588916 1.74823529,16.0583133 C1.02705882,17.2027952 1.19382353,18.0046265 1.46088235,18.4756627 C1.84676471,19.157494 2.55264706,19.3995181 3.03970588,19.3995181 C3.19588235,19.3995181 3.34058824,19.3763855 3.47088235,19.3304096 C3.70441176,19.2471325 4.005,19.2098313 4.19176471,19.2098313 C4.765,19.2098313 5.29411765,19.5299277 5.58823529,20.2765301 L5.58823529,22.7106506 C5.58823529,23.4879036 6.16941176,24 6.90352941,24 L6.93705882,24 C7.29705882,24 7.625,23.8632289 7.87029412,23.6397108 C8.11588235,23.8632289 8.44382353,24 8.80411765,24 L8.83705882,24 C9.19735294,24 9.52558824,23.8629398 9.77117647,23.6397108 C10.0161765,23.8629398 10.3444118,24 10.7044118,24 L10.7379412,24 C11.0982353,24 11.4264706,23.8629398 11.6720588,23.6397108 C11.9170588,23.8629398 12.2452941,24 12.605,24 L12.6385294,24 C13.4194118,24 14.1176471,23.4352771 14.1176471,22.7106506 L14.1176471,20.4346988 C14.4117647,20.0243855 14.6564706,19.2098313 15.59,19.2098313 C15.7817647,19.2098313 15.9752941,19.2459759 16.2108824,19.3298313 C16.3455882,19.3784096 16.485,19.4009639 16.6385294,19.4009639 C17.1894118,19.4009639 17.9629412,19.0866506 18.3544118,18.3964337 C18.6144118,17.937253 18.7802941,17.1591325 18.0876471,16.0580241 C17.3294118,14.8551325 17.4991176,14.5173976 18.0982353,13.9815904 L18.0982353,13.9815904 Z M16.6435294,18.533494 C16.5867647,18.533494 16.5561765,18.5268434 16.5235294,18.514988 C16.1879412,18.3955663 15.9064706,18.3423614 15.6102941,18.3423614 C13.9908824,18.3423614 13.4079412,19.8 13.2735294,20.246747 C13.2611765,20.2863614 13.2352941,20.328 13.2352941,20.3693494 L13.2352941,22.7106506 C13.2352941,22.958747 12.9302941,23.1325301 12.6388235,23.1325301 C12.3338235,23.1325301 12.1132353,22.6863614 12.1132353,22.4191807 C12.1132353,22.179759 11.9155882,22.0155181 11.6720588,22.0155181 C11.4285294,22.0155181 11.2308824,22.165012 11.2308824,22.4044337 C11.2308824,22.6716145 11.0097059,23.1328193 10.7379412,23.1328193 C10.4329412,23.1328193 10.2123529,22.6866506 10.2123529,22.4194699 C10.2123529,22.1800482 10.0147059,22.0158072 9.77117647,22.0158072 C9.52764706,22.0158072 9.33,22.1653012 9.33,22.4047229 C9.33,22.6719036 9.10882353,23.1331084 8.83705882,23.1331084 C8.53235294,23.1331084 8.31147059,22.6869398 8.31147059,22.419759 C8.31147059,22.1803373 8.11382353,22.0160964 7.87029412,22.0160964 C7.62676471,22.0160964 7.42911765,22.1655904 7.42911765,22.405012 C7.42911765,22.6721928 7.20852941,23.1333976 6.93705882,23.1333976 C6.63470588,23.1325301 6.47058824,22.9723373 6.47058824,22.7106506 L6.47058824,20.1727229 C6.47058824,20.1059277 6.44647059,20.0397108 6.41588235,19.9795663 C6.21147059,19.574747 5.58382353,18.3423614 4.18735294,18.3423614 C3.86088235,18.3423614 3.47029412,18.4085783 3.17264706,18.5146988 C3.15764706,18.5201928 3.11441176,18.5323373 3.04088235,18.5323373 C2.78205882,18.5323373 2.41852941,18.3825542 2.23235294,18.0537831 C1.95676471,17.5682892 2.225,16.949494 2.49852941,16.5151807 C3.26470588,15.2975422 3.48705882,14.389012 2.35735294,13.3483373 C1.89323529,12.9206747 1.02941176,12.125494 1.02941176,8.18660241 C1.02941176,1.73349398 7.26470588,1.03662651 9.94529412,1.03662651 C12.6258824,1.03662651 18.8611765,1.73320482 18.8611765,8.18660241 C18.8611765,12.1252048 17.9782353,12.915759 17.5035294,13.3408193 C16.3452941,14.3768675 16.5658824,15.2891566 17.3382353,16.5151807 C17.5964706,16.9246265 17.8491176,17.510747 17.5861765,17.9742651 C17.3802941,18.3374458 16.9467647,18.533494 16.6435294,18.533494 Z"></path>
                    <path d="M10.9855882,17.6272771 C11.9464581,17.4175004 9.88147059,14.5009157 9.88147059,14.5009157 C9.88147059,14.5009157 7.84253923,17.4798083 8.77764706,17.6272771 C9.71275489,17.7747459 10.0247184,17.8370538 10.9855882,17.6272771 Z"></path>
                </g>
                <rect id="Rectangle-33" fill="#333333" sketch:type="MSShapeGroup" transform="translate(8.007242, 11.978204) rotate(-315.000000) translate(-8.007242, -11.978204) " x="5.36018271" y="11.5444688" width="5.29411765" height="0.86746988" rx="0.294117647"></rect>
                <rect id="Rectangle-33-Copy" fill="#333333" sketch:type="MSShapeGroup" transform="translate(8.007242, 11.978204) rotate(-225.000000) translate(-8.007242, -11.978204) " x="5.36018271" y="11.5444688" width="5.29411765" height="0.86746988" rx="0.294117647"></rect>
                <rect id="Rectangle-33-Copy-3" fill="#333333" sketch:type="MSShapeGroup" transform="translate(15.654300, 11.978204) rotate(-315.000000) translate(-15.654300, -11.978204) " x="13.0072415" y="11.5444688" width="5.29411765" height="0.86746988" rx="0.294117647"></rect>
                <rect id="Rectangle-33-Copy-2" fill="#333333" sketch:type="MSShapeGroup" transform="translate(15.654300, 11.978204) rotate(-225.000000) translate(-15.654300, -11.978204) " x="13.0072415" y="11.5444688" width="5.29411765" height="0.86746988" rx="0.294117647"></rect>
            </g>
        </g>
    </g>
</svg>