<?xml version="1.0" encoding="UTF-8" standalone="no"?>
<svg width="20px" height="21px" viewBox="0 0 20 21" version="1.1" xmlns="http://www.w3.org/2000/svg" xmlns:xlink="http://www.w3.org/1999/xlink" xmlns:sketch="http://www.bohemiancoding.com/sketch/ns">
    <!-- Generator: Sketch 3.4.2 (15855) - http://www.bohemiancoding.com/sketch -->
    <title>ic_skull</title>
    <desc>Created with Sketch.</desc>
    <defs></defs>
    <g id="Page-1" stroke="none" stroke-width="1" fill="none" fill-rule="evenodd" sketch:type="MSPage">
        <g id="Desktop-HD-Copy" sketch:type="MSArtboardGroup" transform="translate(-1163.000000, -328.000000)">
            <g id="ic_skull" sketch:type="MSLayerGroup" transform="translate(1161.000000, 327.000000)">
                <rect id="Rectangle-205" opacity="0.788129664" sketch:type="MSShapeGroup" x="0" y="0" width="24" height="24"></rect>
                <path d="M12.4143481,13.7703412 C12.2948475,13.6599666 12.1378544,13.6145309 11.9863717,13.6297476 C11.8348891,13.6141022 11.678004,13.6594308 11.5588276,13.7703412 C11.1649942,14.1387566 9.90872531,15.4144941 10.2949953,16.3827901 C10.4998535,16.8941567 11.0505719,17.1530548 11.9314836,17.1530548 C11.9502838,17.1530548 11.9682197,17.1495185 11.9865878,17.1473754 C12.005064,17.1495185 12.0229999,17.1530548 12.0419082,17.1530548 C12.9227118,17.1530548 13.4735383,16.8941567 13.6783964,16.3827901 C14.0646664,15.4144941 12.8080734,14.1385423 12.4143481,13.7703412 L12.4143481,13.7703412 Z M8.49276211,10.0397869 C7.19705584,10.0397869 6.14316,11.0850237 6.14316,12.3702984 C6.14316,13.6564304 7.19705584,14.702953 8.49276211,14.702953 C9.78976495,14.702953 10.8447413,13.6564304 10.8447413,12.3702984 C10.8447413,11.0850237 9.78976495,10.0397869 8.49276211,10.0397869 L8.49276211,10.0397869 Z M20.6308243,4.41861213 C18.2484838,1.24657471 13.5974688,1 12.2238603,1 L12.0266735,1.00300047 L11.7700605,1 C10.4013141,1 5.75029909,1.24657471 3.36785052,4.41882645 C1.83908568,6.45700596 1.59036021,9.23480244 2.62880525,12.6761324 C2.68001979,12.8479096 3.1324149,14.3852242 3.28638267,15.5135098 C3.4327871,16.5888584 4.20835245,17.2308528 5.36100375,17.2308528 L5.36986365,17.2307457 L6.41900541,17.2566784 C6.42646069,17.2759671 6.43640106,17.3089723 6.4437483,17.3619093 L6.46611414,17.561548 C6.57351341,18.5140915 6.85821871,21.0398481 10.0149361,21.7872878 C10.1172571,21.8268298 10.2180655,21.8364741 10.3118507,21.8382959 C10.8134075,21.9470631 11.3657466,22 11.9991213,22 C12.6357375,22 13.1855915,21.9548857 13.6779642,21.862514 C13.6950358,21.8647643 13.7152406,21.8666932 13.7374984,21.8666932 C13.8860638,21.8666932 14.0300912,21.8298302 14.1574793,21.759962 C17.1465068,20.9630146 17.42635,18.4994106 17.5313722,17.5754788 L17.5549266,17.4068092 C17.5593565,17.373804 17.5637865,17.3470141 17.5680003,17.3253678 L17.6022514,17.3379055 L18.7277828,17.3379055 C19.5314405,17.3379055 20.5333655,16.8733677 20.7131566,15.5634463 C20.8659358,14.4397685 21.3182229,12.8664483 21.3688972,12.691242 C22.4102595,9.24305375 22.1619662,6.45968495 20.6308243,4.41861213 L20.6308243,4.41861213 Z M19.705181,12.1901627 C19.6505089,12.3738346 19.1662398,14.0199164 18.9923912,15.2881527 C18.9753197,15.4154586 18.9619218,15.5162959 18.6281629,15.5162959 L17.5688647,15.5396568 C16.815233,15.5396568 15.9864002,16.0348422 15.8339451,17.1414816 L15.8310278,17.1635565 L15.8315681,17.3891279 C15.7296792,18.2701958 15.5053725,19.1464415 14.6568751,19.708709 L14.6568751,18.6584358 C14.6568751,18.1919691 14.236354,17.7980497 13.7385789,17.7980497 C13.2408038,17.7980497 12.8200667,18.1920763 12.8200667,18.6584358 L12.8200667,20.2521164 C12.563994,20.2800851 12.2749667,20.2945517 11.9693002,20.2945517 C11.6969123,20.2945517 11.4426764,20.282657 11.1993533,20.2586532 L11.1993533,18.6580071 C11.1993533,18.1835035 10.8115707,17.7976211 10.3349729,17.7976211 C9.85837515,17.7976211 9.47059248,18.1836107 9.47059248,18.6580071 L9.47059248,19.7630391 C8.38482261,19.1131148 8.25991963,18.0037965 8.18936458,17.3778761 L8.16256879,17.1276579 C8.00006527,15.9377555 7.08976462,15.5157601 6.35957925,15.5157601 L5.27078405,15.5157601 C5.03750938,15.5157601 5.02659657,15.4377478 5.00509511,15.283652 C4.83708116,14.0499212 4.38176877,12.4789584 4.29090078,12.1719456 C3.41841678,9.28163128 3.5763823,7.01680878 4.76025935,5.44048804 C6.70565557,2.84904245 10.9407955,2.71777169 11.7641179,2.71777169 L12.0253769,2.72237956 L12.2286143,2.72002204 C13.0574471,2.72002204 17.2907503,2.85150713 19.2381994,5.44648899 C20.4230489,7.0258102 20.5803661,9.2938475 19.705181,12.1901627 L19.705181,12.1901627 Z M15.5060208,10.0397869 C14.209018,10.0397869 13.1540416,11.0850237 13.1540416,12.3702984 C13.1540416,13.6564304 14.209018,14.702953 15.5060208,14.702953 C16.8030236,14.702953 17.858,13.6564304 17.858,12.3702984 C17.8576758,11.0850237 16.8029156,10.0397869 15.5060208,10.0397869 L15.5060208,10.0397869 Z" id="Shape" fill="#333333" sketch:type="MSShapeGroup"></path>
            </g>
        </g>
    </g>
</svg>